<?xml version="1.0" encoding="utf-8"?>
<!-- Generator: Adobe Illustrator 23.0.2, SVG Export Plug-In . SVG Version: 6.00 Build 0)  -->
<svg version="1.1" id="Camada_1" xmlns="http://www.w3.org/2000/svg" xmlns:xlink="http://www.w3.org/1999/xlink" x="0px" y="0px"
	 viewBox="0 0 477 128" style="enable-background:new 0 0 477 128;" xml:space="preserve">
<style type="text/css">
	.st0{fill:#FFFFFF;}
	.st1{fill:#07DD56;}
	.st2{fill:url(#XMLID_20_);}
	.st3{fill:url(#XMLID_21_);}
	.st4{fill:url(#XMLID_22_);}
	.st5{fill:url(#XMLID_23_);}
	.st6{fill:url(#XMLID_24_);}
	.st7{fill:url(#XMLID_25_);}
	.st8{fill:url(#XMLID_27_);}
	.st9{fill:url(#XMLID_30_);}
</style>
<ellipse class="st0" cx="67.7" cy="65.7" rx="56.1" ry="58"/>
<g id="XMLID_1_">
	<g id="XMLID_19_">
		<path id="XMLID_26_" class="st0" d="M163.5,72.2h-12v12.5h-8.1V42.1c6.7,0,13.4-0.1,20.1-0.1C184.3,42.1,184.4,72.2,163.5,72.2z
			 M151.5,64.8h12c10.3,0,10.2-15.1,0-15.1h-12V64.8z"/>
		<path id="XMLID_60_" class="st0" d="M189.6,54.7l0.6,3.5c2.3-3.7,5.4-4.2,8.5-4.2c3.1,0,6.1,1.2,7.7,2.9l-3.4,6.4
			c-1.5-1.2-2.9-1.9-5.4-1.9c-3.8,0-7.5,2-7.5,7.6v15.8h-7.4v-30L189.6,54.7L189.6,54.7z"/>
		<path id="XMLID_62_" class="st0" d="M239,69.8c0,8.6-5.9,15.7-15.7,15.7c-9.7,0-15.6-7-15.6-15.7c0-8.5,6-15.7,15.5-15.7
			C232.8,54.2,239,61.2,239,69.8z M215.2,69.8c0,4.6,2.8,8.8,8.2,8.8c5.4,0,8.2-4.2,8.2-8.8c0-4.5-3.2-8.8-8.2-8.8
			C217.9,60.9,215.2,65.3,215.2,69.8z"/>
		<path id="XMLID_67_" class="st0" d="M246.6,84.7V61.6H241v-6.5h5.6v-2c0-8.1,5.4-11.7,11.4-11.7c2.6,0,5.4,0.9,7.8,2.4l-2.8,5.6
			c-1.5-1.1-3.1-1.5-4.6-1.5c-2.6,0-4.5,1.7-4.5,5.4v2h8.8v6.5h-8.8v23.1L246.6,84.7L246.6,84.7z"/>
		<path id="XMLID_69_" class="st0" d="M276.1,46.3c0,5.8-8.7,5.8-8.7,0S276.1,40.5,276.1,46.3z M268,54.6v30.2h7.4V54.6L268,54.6
			L268,54.6z"/>
		<path id="XMLID_72_" class="st0" d="M292.6,46.3v8.5h8.3v6.3h-8.4v13c0,2.9,1.5,4.2,3.8,4.2c1.2,0,2.5-0.4,3.6-0.9l2,6.3
			c-2.1,0.9-3.8,1.2-6.1,1.2c-6.5,0.3-10.8-3.5-10.8-11v-13h-5.6v-6.3h5.6v-7.7L292.6,46.3z"/>
		<path id="XMLID_74_" class="st0" d="M308.8,84.7V61.6h-5.6v-6.5h5.6v-2c0-8.1,5.4-11.7,11.4-11.7c2.6,0,5.4,0.9,7.8,2.4l-2.8,5.6
			c-1.5-1.1-3.1-1.5-4.6-1.5c-2.6,0-4.5,1.7-4.5,5.4v2h8.8v6.5h-8.8v23.1L308.8,84.7L308.8,84.7z"/>
		<path id="XMLID_76_" class="st0" d="M361.2,54.7l-18.3,42.6h-8.2l5.6-13l-12-29.5h8.6l4.6,13l2.9,8.5l3.1-8.3l5.5-13.2L361.2,54.7
			L361.2,54.7z"/>
		<path id="XMLID_78_" class="st0" d="M369.6,82.9c0,3.2-4.8,3.2-4.8,0S369.6,79.8,369.6,82.9z"/>
		<path id="XMLID_80_" class="st0" d="M422.2,84.7v-18c0-5.8-3.8-9.9-9.6-9.9c-5.8,0-9.7,4.2-9.7,10v17.9h-3V66.9
			c0-5.8-3.9-10-9.7-10c-5.8,0-9.6,4.2-9.6,10v17.9h-3V54.7h2.8l0.1,5c2-3.9,5.9-5.6,9.8-5.6c4.6,0,9.4,2,11.1,7.4
			c1.8-4.9,6.5-7.4,11.1-7.4c7.4,0,12.6,5.2,12.6,12.7v18L422.2,84.7L422.2,84.7z"/>
		<path id="XMLID_82_" class="st0" d="M431.8,69.7c0-9,6.8-15.5,15.3-15.5c8.5,0,16,5.2,14.9,16.9h-27.1c0.6,7.1,6.1,11.1,12.2,11.1
			c3.9,0,8.5-1.5,10.9-4.6l2.1,1.7c-2.9,3.8-8.2,5.8-13,5.8C438.6,85.2,431.8,79.2,431.8,69.7z M459.2,68.5
			c-0.1-7.4-4.9-11.5-12.2-11.5c-6.2,0-11.5,4.2-12.2,11.5H459.2z"/>
	</g>
	<g id="XMLID_11_">
		<g id="XMLID_57_">
			<path id="XMLID_58_" class="st1" d="M78.3,33.7L78.3,33.7L78.3,33.7l0.2,0.3l0.2,0.4c0,0.1,0.1,0.1,0.1,0.1l0.1,0.1
				c0.1,0.1,0.1,0.1,0.1,0.2c0.1,0.1,0.3,0.3,0.4,0.5c0.1,0.2,0.3,0.3,0.5,0.4c0.2,0.1,0.3,0.3,0.5,0.4c1.3,1,3.2,1.4,4.8,1.2h0.3
				l0.3-0.1c0.2-0.1,0.4-0.1,0.6-0.2c0.2-0.1,0.4-0.1,0.6-0.2l0.3-0.1l0.1-0.1h0.1l0,0c0,0-0.1,0.1-0.1,0l0,0l0.3-0.2
				c0.1-0.1,0.3-0.1,0.3-0.2l0.2-0.2c0.1-0.1,0.1-0.1,0.2-0.2c0.3-0.3,0.6-0.6,0.9-0.9c1-1.2,1.3-2.9,1.2-4.3
				c-0.1-0.8-0.3-1.4-0.7-2l0,0c0,0.1,0,0,0,0v-0.1l-0.1-0.1c-0.1-0.1-0.1-0.2-0.1-0.3c-0.1-0.1-0.2-0.3-0.3-0.4
				c-0.1-0.1-0.2-0.2-0.3-0.4c-0.1-0.1-0.2-0.2-0.4-0.3c-1-0.8-2-1.2-3-1.2c-1-0.1-1.6,0.1-2.1,0.3c-0.3,0.1-0.4,0.2-0.6,0.2
				c-0.1,0.1-0.2,0.1-0.2,0.1l-0.2-0.3c0,0,0.1,0,0.2-0.1c0.1-0.1,0.3-0.2,0.6-0.3c0.5-0.3,1.2-0.6,2.3-0.7c0.6,0,1.2,0,1.7,0.1
				c0.7,0.1,1.3,0.4,1.9,0.8c0.2,0.1,0.3,0.2,0.5,0.4c0.2,0.2,0.3,0.3,0.5,0.4c0.1,0.2,0.3,0.3,0.5,0.5c0.1,0.1,0.1,0.1,0.2,0.2
				l0.1,0.1l0.1,0.1c0,0,0,0,0,0.1l0,0l0,0c0.5,0.7,0.9,1.5,1.2,2.5c0.6,1.8,0.4,4.1-0.8,6.1c0.2-0.3,0.4-0.5,0.6-0.8
				c0.8-1.1,1.4-2.3,1.8-3.7c0.6-1.7,0.7-3.5-0.1-5.2c-1-2.2-3.2-3.7-5.4-4.3c-1.2-0.3-2.4-0.5-3.7-0.3c-0.2,0-0.4,0-0.5,0.1
				c-0.2,0-0.4,0.1-0.5,0.1c-0.4,0.1-0.7,0.2-1.1,0.3c-0.1,0-0.2,0.1-0.3,0.1l-0.3,0.1c-0.2,0.1-0.4,0.2-0.5,0.2L81.3,23
				c0,0,0.3-0.2,0.1-0.1l0,0l0,0L81.3,23l-0.4,0.2l-0.4,0.2l-0.1,0.1l0,0l0,0l-0.1,0.1c-0.1,0.1-0.2,0.2-0.4,0.2
				c-0.1,0.1-0.3,0.3-0.4,0.4c-0.1,0.1-0.3,0.3-0.4,0.4c-0.1,0.1-0.3,0.3-0.4,0.4c-0.1,0.2-0.2,0.3-0.4,0.5l-0.3,0.5
				c-0.1,0.2-0.2,0.4-0.3,0.5c-0.1,0.2-0.2,0.4-0.3,0.6c-0.3,0.8-0.5,1.5-0.6,2.4c-0.1,0.9,0,1.7,0.2,2.5c0,0.2,0.1,0.4,0.2,0.6
				c0.1,0.2,0.1,0.4,0.2,0.6L78.3,33.7C78.3,33.6,78.5,33.8,78.3,33.7L78.3,33.7z"/>
			<path id="XMLID_64_" class="st1" d="M54.6,86.4c-0.2,2.6-0.2,5.9-0.3,7.8h-3.4V119c-2.5-0.9-4.9-1.8-7.2-2.9v-15.3h-1.8
				c0-0.7,0-2.2-1-4.8c-0.9-2.5,0.5-8.5,2.1-12.4c0.6-1.3,1.2-2.5,1.8-3.1c1.6-1.7,6.6-7.2,9.5-12C54.6,73.8,54.7,83,54.6,86.4z"/>
			<path id="XMLID_31_" class="st1" d="M69.9,77.4c-0.2,2.5-0.2,6.1-0.3,8.5h-2.9v36c-2.5-0.1-4.9-0.4-7.2-0.8V94.2h-1.9
				c0-1.3,0-3.7,0.2-7.3c0.2-5.6,4.8-13,3.9-21.4c2,0.5,4.4,0.7,6.8,0.3c0.6-0.1,1.1-0.2,1.6-0.4C70.1,68.9,70.1,74.3,69.9,77.4z"/>
			<path id="XMLID_28_" class="st1" d="M84.7,75.2h-2.1v45.2c-2.3,0.6-4.8,1-7.2,1.2V85.9h-2.6c0-1.6,0.2-4.4,0.9-8
				c1.4-7.1,5.8-11.5,10.6-15.8c-0.1,2.2-0.1,5,0.1,6.5C84.5,69.8,84.6,72.6,84.7,75.2z"/>
			<path id="XMLID_29_" class="st1" d="M128.1,63.1c0,2.7-0.2,5.2-0.5,7.8c-2.8,21.3-17.1,39-36.4,46.8V75.1h-2.6
				c0.1-1.1,0.1-2.1,0.2-2.6c0.6-14.2,8.8-20,9.7-27.8c0.5-4.4,0.1-14.1,0.1-14.1s1.3-1.2,3.8-0.8c2.6,0.4,3.3,1.1,4.4-0.4
				c0,0,0-0.1,0.1-0.1c1.2-1.3,2-0.9,1.7-2.7c-0.4-1.8-0.6-2.9-2.2-3.2c-1.3-0.3-7.8-6.4-8.3-6.7c-0.4-0.2-0.7-0.5-1.1-0.7
				c-0.4-0.2-0.8-0.4-1.2-0.7c-1.6-0.9-3.7-1.5-5.9-1.8c-2.2-0.3-4.7-0.2-7.1,0.5c-0.3,0.1-0.6,0.2-0.9,0.3
				c-0.3,0.1-0.6,0.2-0.9,0.4c-0.6,0.2-1.2,0.6-1.7,0.9c-0.2,0.1-0.3,0.1-0.4,0.2l-0.4,0.3c-0.3,0.2-0.6,0.4-0.9,0.6l-0.2,0.1
				c0,0-0.1,0.1-0.2,0.1l0,0l0,0L77.5,17l-0.3,0.3l-0.3,0.3l-0.1,0.1l0,0l-0.1,0.1l-0.2,0.2c-0.3,0.3-0.6,0.6-0.9,0.9
				c-0.3,0.3-0.5,0.6-0.7,0.9c-0.2,0.3-0.4,0.6-0.7,0.9c-0.2,0.3-0.4,0.6-0.6,0.9c-0.2,0.3-0.4,0.6-0.5,1c-0.2,0.3-0.3,0.7-0.4,1
				c-0.2,0.3-0.3,0.7-0.4,1.1c-0.1,0.4-0.2,0.7-0.3,1.1c-0.4,1.3-0.5,2.8-0.4,4.2s0.4,2.8,1,4.1c0.1,0.4,0.3,0.7,0.4,1
				c0.1,0.3,0.3,0.7,0.5,1l0.6,0.9l0.1,0.1l0,0l0,0l0.1,0.1l0.1,0.2l0.3,0.3c0,0.1,0.1,0.1,0.2,0.2l0.2,0.2l0.4,0.4
				c0.3,0.3,0.6,0.5,0.9,0.7c0.3,0.2,0.6,0.4,0.9,0.6c0.3,0.2,0.6,0.4,0.9,0.5c1.6,0.9,3.4,1.2,5,1.2c-5.7,0.9-9.3-1.2-11.3-3.1
				c-5.7,2.5-13.1,5.6-15.8,7c-3.8,1.9-8.3,3.9-9.1,11.1c-3.4,0.3-6.9-0.4-7.1-0.5c0.2,0.3,3,4.8,7,4.5c-0.2,8.9-3.8,15.2-5.5,16.6
				c-1.7,1.4-2.3,1.4-2.1,5.1c0.2,3.6-1.3,11-2.3,12.2c-1,1.2-1.2,1.6-0.7,2.9c0.4,1,0.3,3.1,0.2,3.9h-1.2v10.2
				c-14.9-10.7-24.6-28-24.6-47.8c0-32.5,26.3-58.8,58.8-58.8S128.1,30.6,128.1,63.1z"/>
		</g>
		<g id="XMLID_13_">
			
				<linearGradient id="XMLID_20_" gradientUnits="userSpaceOnUse" x1="36.5386" y1="-312.706" x2="73.1078" y2="-239.2322" gradientTransform="matrix(1 0 0 1 0 380)">
				<stop  offset="0" style="stop-color:#10A040"/>
				<stop  offset="1" style="stop-color:#07DD56"/>
			</linearGradient>
			<path id="XMLID_32_" class="st2" d="M54.4,68.5c0.2,5.4,0.4,14.5,0.1,18c-0.2,2.6-0.2,5.9-0.3,7.8h-3.4V119
				c-2.5-0.9-4.9-1.8-7.2-2.9v-15.3h-1.8c0-0.7,0-2.2-1-4.8c-0.9-2.5,0.5-8.5,2.1-12.4c0.6-1.3,1.2-2.5,1.8-3.1
				C46.6,78.7,51.6,73.3,54.4,68.5z"/>
			
				<linearGradient id="XMLID_21_" gradientUnits="userSpaceOnUse" x1="48.8773" y1="-318.8473" x2="85.4467" y2="-245.3734" gradientTransform="matrix(1 0 0 1 0 380)">
				<stop  offset="0" style="stop-color:#10A040"/>
				<stop  offset="1" style="stop-color:#07DD56"/>
			</linearGradient>
			<path id="XMLID_43_" class="st3" d="M70.1,65.3c0,3.7,0,9-0.2,12.1c-0.2,2.5-0.2,6.1-0.3,8.5h-2.9v36c-2.5-0.1-4.9-0.4-7.2-0.8
				V94.2h-1.9c0-1.3,0-3.7,0.2-7.3c0.2-5.6,4.8-13,3.9-21.4c2,0.5,4.4,0.7,6.8,0.3C69.1,65.6,69.6,65.4,70.1,65.3z"/>
			
				<linearGradient id="XMLID_22_" gradientUnits="userSpaceOnUse" x1="61.3854" y1="-325.0728" x2="97.9546" y2="-251.5988" gradientTransform="matrix(1 0 0 1 0 380)">
				<stop  offset="0" style="stop-color:#10A040"/>
				<stop  offset="1" style="stop-color:#07DD56"/>
			</linearGradient>
			<path id="XMLID_44_" class="st4" d="M84.3,68.6c0.2,1.2,0.4,4,0.4,6.6h-2.1v45.2c-2.3,0.6-4.8,1-7.2,1.2V85.9h-2.6
				c0-1.6,0.2-4.4,0.9-8c1.4-7.1,5.8-11.5,10.6-15.8C84.1,64.2,84,67,84.3,68.6z"/>
			
				<linearGradient id="XMLID_23_" gradientUnits="userSpaceOnUse" x1="84.1397" y1="-336.3978" x2="120.709" y2="-262.924" gradientTransform="matrix(1 0 0 1 0 380)">
				<stop  offset="0" style="stop-color:#10A040"/>
				<stop  offset="1" style="stop-color:#07DD56"/>
			</linearGradient>
			<path id="XMLID_63_" class="st5" d="M127.6,70.9c-2.8,21.3-17.1,39-36.4,46.8V75.1h-2.6c0.1-1.1,0.1-2.1,0.2-2.6
				c0.6-14.2,8.8-20,9.7-27.8c0.5-4.4,0.1-14.1,0.1-14.1s1.3-1.2,3.8-0.8c2.6,0.4,3.3,1.1,4.4-0.4c0,0,0-0.1,0.1-0.1L127.6,70.9z"/>
		</g>
	</g>
</g>
<g id="XMLID_2_">
	<g id="XMLID_17_">
		<path class="st0" d="M286.8,84.6c0.3,0.3,0.6,0.5,1,0.7c1.9-0.5,3.8-1.1,5.8-1.5C291.2,84,289,84.3,286.8,84.6z"/>
		<path class="st0" d="M310.5,57.4c0,0.3-0.1,0.7-0.1,1c1.2-0.5,2.2-0.9,3.4-1.4C312.7,57.1,311.6,57.3,310.5,57.4z"/>
	</g>
	<g id="XMLID_3_">
		<g id="XMLID_9_">
			<path id="XMLID_16_" class="st1" d="M76.6,35.4L76.6,35.4L76.6,35.4l0.2,0.3l0.2,0.4c0,0.1,0.1,0.1,0.1,0.1l0.1,0.1
				c0.1,0.1,0.1,0.1,0.1,0.2c0.1,0.1,0.3,0.3,0.4,0.5c0.1,0.2,0.3,0.3,0.5,0.4c0.2,0.1,0.3,0.3,0.5,0.4c1.3,1,3.2,1.4,4.8,1.2h0.3
				l0.3-0.1c0.2-0.1,0.4-0.1,0.6-0.2c0.2-0.1,0.4-0.1,0.6-0.2l0.3-0.1l0.1-0.1h0.1l0,0c0,0-0.1,0.1-0.1,0l0,0l0.3-0.2
				c0.1-0.1,0.3-0.1,0.3-0.2l0.2-0.2c0.1-0.1,0.1-0.1,0.2-0.2c0.3-0.3,0.6-0.6,0.9-0.9c1-1.2,1.3-2.9,1.2-4.3
				c-0.1-0.8-0.3-1.4-0.7-2l0,0c0,0.1,0,0,0,0v-0.1L87.8,30c-0.1-0.1-0.1-0.2-0.1-0.3c-0.1-0.1-0.2-0.3-0.3-0.4
				c-0.1-0.1-0.2-0.2-0.3-0.4c-0.1-0.1-0.2-0.2-0.4-0.3c-1-0.8-2-1.2-3-1.2c-1-0.1-1.6,0.1-2.1,0.3c-0.3,0.1-0.4,0.2-0.6,0.2
				c-0.1,0.1-0.2,0.1-0.2,0.1l-0.2-0.3c0,0,0.1,0,0.2-0.1c0.1-0.1,0.3-0.2,0.6-0.3c0.5-0.3,1.2-0.6,2.3-0.7c0.6,0,1.2,0,1.7,0.1
				c0.7,0.1,1.3,0.4,1.9,0.8c0.2,0.1,0.3,0.2,0.5,0.4c0.2,0.2,0.3,0.3,0.5,0.4c0.1,0.2,0.3,0.3,0.5,0.5c0.1,0.1,0.1,0.1,0.2,0.2
				l0.1,0.1l0.1,0.1c0,0,0,0,0,0.1l0,0l0,0c0.5,0.7,0.9,1.5,1.2,2.5c0.6,1.8,0.4,4.1-0.8,6.1c0.2-0.3,0.4-0.5,0.6-0.8
				c0.8-1.1,1.4-2.3,1.8-3.7c0.6-1.7,0.7-3.5-0.1-5.2c-1-2.2-3.2-3.7-5.4-4.3c-1.2-0.3-2.4-0.5-3.7-0.3c-0.2,0-0.4,0-0.5,0.1
				c-0.2,0-0.4,0.1-0.5,0.1c-0.4,0.1-0.7,0.2-1.1,0.3c-0.1,0-0.2,0.1-0.3,0.1l-0.3,0.1c-0.2,0.1-0.4,0.2-0.5,0.2l-0.1,0.1
				c0,0,0.3-0.2,0.1-0.1l0,0l0,0l-0.1,0.1L79.2,25l-0.4,0.2l-0.1,0.1l0,0l0,0l-0.1,0.1c-0.1,0.1-0.2,0.2-0.4,0.2
				c-0.1,0.1-0.3,0.3-0.4,0.4c-0.1,0.1-0.3,0.3-0.4,0.4c-0.1,0.1-0.3,0.3-0.4,0.4c-0.1,0.2-0.2,0.3-0.4,0.5l-0.3,0.5
				c-0.1,0.2-0.2,0.4-0.3,0.5c-0.1,0.2-0.2,0.4-0.3,0.6c-0.3,0.8-0.5,1.5-0.6,2.4c-0.1,0.9,0,1.7,0.2,2.5c0,0.2,0.1,0.4,0.2,0.6
				c0.1,0.2,0.1,0.4,0.2,0.6L76.6,35.4C76.6,35.4,76.8,35.5,76.6,35.4L76.6,35.4z"/>
			<path id="XMLID_15_" class="st1" d="M52.9,88.2c-0.2,2.6-0.2,5.9-0.3,7.8h-3.4v24.8c-2.5-0.9-4.9-1.8-7.2-2.9v-15.3h-1.8
				c0-0.7,0-2.2-1-4.8c-0.9-2.5,0.5-8.5,2.1-12.4c0.6-1.3,1.2-2.5,1.8-3.1c1.6-1.7,6.6-7.2,9.5-12C52.9,75.7,53.1,84.7,52.9,88.2z"
				/>
			<path id="XMLID_14_" class="st1" d="M68.3,79.1c-0.2,2.5-0.2,6.1-0.3,8.5h-2.9v36c-2.5-0.1-4.9-0.4-7.2-0.8V95.9H56
				c0-1.3,0-3.7,0.2-7.3c0.2-5.6,4.8-13,3.9-21.4c2,0.5,4.4,0.7,6.8,0.3c0.6-0.1,1.1-0.2,1.6-0.4C68.5,70.8,68.5,76.1,68.3,79.1z"/>
			<path id="XMLID_12_" class="st1" d="M83.1,76.9H81v45.2c-2.3,0.6-4.8,1-7.2,1.2V87.7h-2.6c0-1.6,0.2-4.4,0.9-8
				c1.4-7.1,5.8-11.5,10.6-15.8c-0.1,2.2-0.1,5,0.1,6.5C82.9,71.5,83,74.3,83.1,76.9z"/>
			<path id="XMLID_10_" class="st1" d="M126.5,64.9c0,2.7-0.2,5.2-0.5,7.8c-2.8,21.3-17.1,39-36.4,46.8V76.9H87
				c0.1-1.1,0.1-2.1,0.2-2.6c0.6-14.2,8.8-20,9.7-27.8c0.5-4.4,0.1-14.1,0.1-14.1s1.3-1.2,3.8-0.8c2.6,0.4,3.3,1.1,4.4-0.4
				c0,0,0-0.1,0.1-0.1c1.2-1.3,2-0.9,1.7-2.7c-0.4-1.8-0.6-2.9-2.2-3.2c-1.3-0.3-7.8-6.4-8.3-6.7c-0.4-0.2-0.7-0.5-1.1-0.7
				c-0.4-0.2-0.8-0.4-1.2-0.7c-1.6-0.9-3.7-1.5-5.9-1.8c-2.2-0.3-4.7-0.2-7.1,0.5c-0.3,0.1-0.6,0.2-0.9,0.3
				c-0.3,0.1-0.6,0.2-0.9,0.4c-0.6,0.2-1.2,0.6-1.7,0.9c-0.2,0.1-0.3,0.1-0.4,0.2l-0.4,0.3c-0.3,0.2-0.6,0.4-0.9,0.6l-0.2,0.1
				c0,0-0.1,0.1-0.2,0.1l0,0l0,0l-0.1,0.1l-0.3,0.3l-0.3,0.3l-0.1,0.1l0,0l-0.1,0.1l-0.2,0.2c-0.3,0.3-0.6,0.6-0.9,0.9
				c-0.3,0.3-0.5,0.6-0.7,0.9c-0.2,0.3-0.4,0.6-0.7,0.9c-0.2,0.3-0.4,0.6-0.6,0.9c-0.2,0.3-0.4,0.6-0.5,1c-0.2,0.3-0.3,0.7-0.4,1
				c-0.2,0.3-0.3,0.7-0.4,1.1c-0.1,0.4-0.2,0.7-0.3,1.1c-0.4,1.3-0.5,2.8-0.4,4.2s0.4,2.8,1,4.1c0.1,0.4,0.3,0.7,0.4,1
				c0.1,0.3,0.3,0.7,0.5,1l0.6,0.9l0.1,0.1l0,0l0,0l0.1,0.1l0.1,0.2l0.3,0.3c0,0.1,0.1,0.1,0.2,0.2l0.2,0.2l0.4,0.4
				c0.3,0.3,0.6,0.5,0.9,0.7c0.3,0.2,0.6,0.4,0.9,0.6c0.3,0.2,0.6,0.4,0.9,0.5c1.6,0.9,3.4,1.2,5,1.2c-5.7,0.9-9.3-1.2-11.3-3.1
				c-5.7,2.5-13.1,5.6-15.8,7c-3.8,1.9-8.3,3.9-9.1,11.1c-3.4,0.3-6.9-0.4-7.1-0.5c0.2,0.3,3,4.8,7,4.5c-0.2,8.9-3.8,15.2-5.5,16.6
				c-1.7,1.4-2.3,1.4-2.1,5.1c0.2,3.6-1.3,11-2.3,12.2c-1,1.2-1.2,1.6-0.7,2.9c0.4,1,0.3,3.1,0.2,3.9h-1.2v10.2
				c-14.9-10.7-24.6-28-24.6-47.8c0-32.5,26.3-58.8,58.8-58.8S126.5,32.4,126.5,64.9z"/>
		</g>
		<g id="XMLID_4_">
			
				<linearGradient id="XMLID_24_" gradientUnits="userSpaceOnUse" x1="34.898" y1="-310.9443" x2="71.4671" y2="-237.4704" gradientTransform="matrix(1 0 0 1 0 380)">
				<stop  offset="0" style="stop-color:#10A040"/>
				<stop  offset="1" style="stop-color:#07DD56"/>
			</linearGradient>
			<path id="XMLID_8_" class="st6" d="M52.7,70.3c0.2,5.4,0.4,14.5,0.1,18c-0.2,2.6-0.2,5.9-0.3,7.8h-3.4v24.7
				c-2.5-0.9-4.9-1.8-7.2-2.9v-15.3h-1.8c0-0.7,0-2.2-1-4.8c-0.9-2.5,0.5-8.5,2.1-12.4c0.6-1.3,1.2-2.5,1.8-3.1
				C44.9,80.6,49.9,75.1,52.7,70.3z"/>
			
				<linearGradient id="XMLID_25_" gradientUnits="userSpaceOnUse" x1="47.2559" y1="-317.0951" x2="83.8251" y2="-243.6212" gradientTransform="matrix(1 0 0 1 0 380)">
				<stop  offset="0" style="stop-color:#10A040"/>
				<stop  offset="1" style="stop-color:#07DD56"/>
			</linearGradient>
			<path id="XMLID_7_" class="st7" d="M68.5,67c0,3.7,0,9-0.2,12.1c-0.2,2.5-0.2,6.1-0.3,8.5h-2.9v36c-2.5-0.1-4.9-0.4-7.2-0.8V95.9
				H56c0-1.3,0-3.7,0.2-7.4c0.2-5.6,4.8-13,3.9-21.4c2,0.5,4.4,0.7,6.8,0.3C67.4,67.3,68,67.2,68.5,67z"/>
			
				<linearGradient id="XMLID_27_" gradientUnits="userSpaceOnUse" x1="59.764" y1="-323.3205" x2="96.3331" y2="-249.8466" gradientTransform="matrix(1 0 0 1 0 380)">
				<stop  offset="0" style="stop-color:#10A040"/>
				<stop  offset="1" style="stop-color:#07DD56"/>
			</linearGradient>
			<path id="XMLID_6_" class="st8" d="M82.7,70.3c0.2,1.2,0.4,4,0.4,6.6H81v45.2c-2.3,0.6-4.8,1-7.2,1.2V87.7h-2.6
				c0-1.6,0.2-4.4,0.9-8c1.4-7.1,5.8-11.5,10.6-15.8C82.5,66,82.4,68.9,82.7,70.3z"/>
			
				<linearGradient id="XMLID_30_" gradientUnits="userSpaceOnUse" x1="82.4799" y1="-334.6266" x2="119.0492" y2="-261.1527" gradientTransform="matrix(1 0 0 1 0 380)">
				<stop  offset="0" style="stop-color:#10A040"/>
				<stop  offset="1" style="stop-color:#07DD56"/>
			</linearGradient>
			<path id="XMLID_5_" class="st9" d="M125.9,72.7c-2.8,21.3-17.1,39-36.4,46.8V76.9h-2.6c0.1-1.1,0.1-2.1,0.2-2.6
				c0.6-14.2,8.8-20,9.7-27.8c0.5-4.4,0.1-14.1,0.1-14.1s1.3-1.2,3.8-0.8c2.6,0.4,3.3,1.1,4.4-0.4c0,0,0-0.1,0.1-0.1L125.9,72.7z"/>
		</g>
	</g>
</g>
</svg>
